<svg width="46" height="46" viewBox="0 0 46 46" fill="none" xmlns="http://www.w3.org/2000/svg">
<g clip-path="url(#clip0_104_14)">
<path d="M21.0833 21.0833V13.4166H24.9166V21.0833H32.5833V24.9166H24.9166V32.5833H21.0833V24.9166H13.4166V21.0833H21.0833ZM22.9999 42.1666C12.4142 42.1666 3.83325 33.5857 3.83325 22.9999C3.83325 12.4142 12.4142 3.83325 22.9999 3.83325C33.5857 3.83325 42.1666 12.4142 42.1666 22.9999C42.1666 33.5857 33.5857 42.1666 22.9999 42.1666ZM22.9999 38.3333C27.0666 38.3333 30.9667 36.7178 33.8422 33.8422C36.7178 30.9667 38.3333 27.0666 38.3333 22.9999C38.3333 18.9333 36.7178 15.0332 33.8422 12.1576C30.9667 9.28206 27.0666 7.66659 22.9999 7.66659C18.9333 7.66659 15.0332 9.28206 12.1576 12.1576C9.28206 15.0332 7.66659 18.9333 7.66659 22.9999C7.66659 27.0666 9.28206 30.9667 12.1576 33.8422C15.0332 36.7178 18.9333 38.3333 22.9999 38.3333Z" fill="black"/>
</g>
<defs>
<clipPath id="clip0_104_14">
<rect width="46" height="46" fill="white"/>
</clipPath>
</defs>
</svg>
