<svg width="30" height="30" viewBox="0 0 30 30" fill="none" xmlns="http://www.w3.org/2000/svg">
<g clip-path="url(#clip0_115_423)">
<path d="M18.5351 9.69623L11.4651 16.7675C11.3457 16.8828 11.2505 17.0207 11.185 17.1732C11.1195 17.3257 11.085 17.4898 11.0836 17.6557C11.0821 17.8217 11.1137 17.9863 11.1766 18.1399C11.2394 18.2935 11.3323 18.4331 11.4496 18.5505C11.567 18.6678 11.7066 18.7607 11.8602 18.8235C12.0138 18.8864 12.1784 18.918 12.3444 18.9165C12.5103 18.9151 12.6744 18.8806 12.8269 18.8151C12.9794 18.7496 13.1173 18.6544 13.2326 18.535L20.3039 11.465C21.0072 10.7617 21.4023 9.80775 21.4023 8.81311C21.4023 7.81846 21.0072 6.86455 20.3039 6.16123C19.6005 5.45791 18.6466 5.06279 17.652 5.06279C16.6573 5.06279 15.7034 5.45791 15.0001 6.16123L7.92886 13.2325C7.33646 13.8101 6.86465 14.4997 6.54081 15.2611C6.21697 16.0225 6.04755 16.8407 6.04236 17.6681C6.03718 18.4955 6.19634 19.3157 6.51061 20.0811C6.82488 20.8465 7.28801 21.5419 7.87313 22.127C8.45825 22.712 9.15372 23.175 9.91918 23.4892C10.6846 23.8034 11.5049 23.9624 12.3323 23.9571C13.1597 23.9518 13.9778 23.7823 14.7392 23.4583C15.5006 23.1344 16.19 22.6625 16.7676 22.07L23.8389 15L25.6064 16.7675L18.5351 23.8387C17.7226 24.6513 16.7579 25.2958 15.6963 25.7356C14.6346 26.1753 13.4967 26.4017 12.3476 26.4017C11.1985 26.4017 10.0606 26.1753 8.99896 25.7356C7.93731 25.2958 6.97267 24.6513 6.16011 23.8387C5.34756 23.0262 4.70301 22.0615 4.26326 20.9999C3.8235 19.9382 3.59717 18.8004 3.59717 17.6512C3.59717 16.5021 3.8235 15.3642 4.26326 14.3026C4.70301 13.2409 5.34756 12.2763 6.16011 11.4637L13.2326 4.39373C14.4114 3.25524 15.9901 2.62528 17.6289 2.63952C19.2676 2.65376 20.8352 3.31106 21.994 4.46987C23.1528 5.62867 23.8101 7.19624 23.8243 8.83497C23.8386 10.4737 23.2086 12.0525 22.0701 13.2312L15.0001 20.305C14.6518 20.6532 14.2383 20.9295 13.7832 21.1179C13.3281 21.3063 12.8404 21.4033 12.3478 21.4032C11.8552 21.4032 11.3675 21.3061 10.9125 21.1176C10.4574 20.929 10.044 20.6527 9.69574 20.3044C9.34749 19.956 9.07126 19.5425 8.88282 19.0874C8.69438 18.6323 8.59742 18.1446 8.59748 17.652C8.59754 17.1595 8.69461 16.6718 8.88316 16.2167C9.07171 15.7617 9.34803 15.3482 9.69636 15L16.7676 7.92873L18.5351 9.69623Z" fill="#919EAB"/>
</g>
<defs>
<clipPath id="clip0_115_423">
<rect width="30" height="30" fill="white"/>
</clipPath>
</defs>
</svg>
