<svg width="35" height="35" viewBox="0 0 35 35" fill="none" xmlns="http://www.w3.org/2000/svg">
<path d="M25.625 3.41667H32.4583C32.9114 3.41667 33.3459 3.59665 33.6663 3.91703C33.9867 4.2374 34.1667 4.67192 34.1667 5.125V32.4583C34.1667 32.9114 33.9867 33.3459 33.6663 33.6663C33.3459 33.9867 32.9114 34.1667 32.4583 34.1667H1.70833C1.25526 34.1667 0.820734 33.9867 0.500359 33.6663C0.179985 33.3459 0 32.9114 0 32.4583V5.125C0 4.67192 0.179985 4.2374 0.500359 3.91703C0.820734 3.59665 1.25526 3.41667 1.70833 3.41667H8.54167V0H11.9583V3.41667H22.2083V0H25.625V3.41667ZM30.75 17.0833H3.41667V30.75H30.75V17.0833ZM22.2083 6.83333H11.9583V10.25H8.54167V6.83333H3.41667V13.6667H30.75V6.83333H25.625V10.25H22.2083V6.83333ZM6.83333 20.5H10.25V23.9167H6.83333V20.5ZM15.375 20.5H18.7917V23.9167H15.375V20.5ZM23.9167 20.5H27.3333V23.9167H23.9167V20.5Z" fill="black"/>
</svg>
