<svg width="41" height="41" viewBox="0 0 41 41" fill="none" xmlns="http://www.w3.org/2000/svg">
<g clip-path="url(#clip0_113_239)">
<path d="M5.12484 5.125H35.8748C36.3279 5.125 36.7624 5.30498 37.0828 5.62536C37.4032 5.94573 37.5832 6.38026 37.5832 6.83333V34.1667C37.5832 34.6197 37.4032 35.0543 37.0828 35.3746C36.7624 35.695 36.3279 35.875 35.8748 35.875H5.12484C4.67176 35.875 4.23724 35.695 3.91686 35.3746C3.59649 35.0543 3.4165 34.6197 3.4165 34.1667V6.83333C3.4165 6.38026 3.59649 5.94573 3.91686 5.62536C4.23724 5.30498 4.67176 5.125 5.12484 5.125ZM34.1665 12.3649L20.6228 24.4941L6.83317 12.3273V32.4583H34.1665V12.3649ZM7.70613 8.54167L20.604 19.9226L33.3158 8.54167H7.70613Z" fill="black"/>
</g>
<defs>
<clipPath id="clip0_113_239">
<rect width="41" height="41" fill="white"/>
</clipPath>
</defs>
</svg>
